{"title":"Peepli [Live] Hindi BDRip 1080p X264 DTS Subs Team ICF@Mastitorr","uid":6041028,"size":8520187919,"categoryP":"video","categoryS":"hd___movies","magnet":"?xt=urn:btih:6a5370f6fe2b67c70284ccdf516d26fa8f68a566&amp;dn=Peepli+%5BLive%5D+Hindi+BDRip+1080p+X264+DTS+Subs+Team+ICF%40Mastitorr&amp;tr=udp%3A%2F%2Ftracker.openbittorrent.com%3A80&amp;tr=udp%3A%2F%2Fopen.demonii.com%3A1337&amp;tr=udp%3A%2F%2Ftracker.coppersurfer.tk%3A6969&amp;tr=udp%3A%2F%2Fexodus.desync.com%3A6969","seeders":0,"leechers":1,"uploader":"amanrulz","files":3,"time":1292389678,"description":"mastitorrents.com &lt;a href=&quot;\nhttp://www.mastitorrents.com/forums/index.php&quot; rel=&quot;nofollow&quot; target=&quot;_NEW&quot;&gt;\nhttp://www.mastitorrents.com/forums/index.php&lt;/a&gt;\n\nFormat                           : Matroska\nFile size                        : 7.93 GiB\nDuration                         : 1h 50mn\nOverall bit rate                 : 10.3 Mbps\nEncoded date                     : UTC 2010-12-13 07:01:58\nWriting application              : mkvmerge v4.0.0 ('The Stars were mine') built on Jun  6 2010 16:18:42\nWriting library                  : libebml v1.0.0 + libmatroska v1.0.0\n\n\nEncoded By RajMahal @ Team ICF\n\nThanks To [DDR] For the Source \n\nChapters                           : Muxed\nSubtitles                           : English , Arabic\n\nVideo\n\nID                               : 1\nFormat                           : AVC\nFormat/Info                      : Advanced Video Codec\nFormat profile                   : &lt;a class=&quot;__cf_email__&quot; href=&quot;/cdn-cgi/l/email-protection&quot; data-cfemail=&quot;347c5d535c7478001a05&quot;&gt;[email&amp;#160;protected]&lt;/a&gt;&lt;script cf-hash='f9e31' type=&quot;text/javascript&quot;&gt;\n/* &lt;![CDATA[ */!function(){try{var t=&quot;currentScript&quot;in document?document.currentScript:function(){for(var t=document.getElementsByTagName(&quot;script&quot;),e=t.length;e--;)if(t[e].getAttribute(&quot;cf-hash&quot;))return t[e]}();if(t&amp;&amp;t.previousSibling){var e,r,n,i,c=t.previousSibling,a=c.getAttribute(&quot;data-cfemail&quot;);if(a){for(e=&quot;&quot;,r=parseInt(a.substr(0,2),16),n=2;a.length-n;n+=2)i=parseInt(a.substr(n,2),16)^r,e+=String.fromCharCode(i);e=document.createTextNode(e),c.parentNode.replaceChild(e,c)}}}catch(u){}}();/* ]]&gt; */&lt;/script&gt;\nFormat settings, CABAC           : Yes\nFormat settings, ReFrames        : 3 frames\nCodec ID                         : V_MPEG4/ISO/AVC\nDuration                         : 1h 50mn\nBit rate mode                    : Variable\nBit rate                         : 8 839 Kbps\nMaximum bit rate                 : 13.0 Mbps\nWidth                            : 1 920 pixels\nHeight                           : 1 040 pixels\nDisplay aspect ratio             : 16:9\nFrame rate                       : 24.000 fps\nColor space                      : YUV\nChroma subsampling               : 4:2:0\nBit depth                        : 8 bits\nScan type                        : Progressive\nBits/(Pixel*Frame)               : 0.184\nStream size                      : 6.62 GiB (83%)\nWriting library                  : x264 core 98 r1649 20cbe10\n\nAudio\n\nID                               : 2\nFormat                           : DTS\nFormat/Info                      : Digital Theater Systems\nCodec ID                         : A_DTS\nDuration                         : 1h 50mn\nBit rate mode                    : Constant\nBit rate                         : 1 510 Kbps\nChannel(s)                       : 6 channels\nChannel positions                : Front: L C R, Side: L R, LFE\nSampling rate                    : 48.0 KHz\nBit depth                        : 24 bits\nCompression mode                 : Lossy\nStream size                      : 1.16 GiB (15%)\nLanguage                         : Hindi\n","torrent":{"xt":"urn:btih:6a5370f6fe2b67c70284ccdf516d26fa8f68a566","amp;dn":"Peepli+%5BLive%5D+Hindi+BDRip+1080p+X264+DTS+Subs+Team+ICF%40Mastitorr","amp;tr":["udp%3A%2F%2Ftracker.openbittorrent.com%3A80","udp%3A%2F%2Fopen.demonii.com%3A1337","udp%3A%2F%2Ftracker.coppersurfer.tk%3A6969","udp%3A%2F%2Fexodus.desync.com%3A6969"],"infoHash":"6a5370f6fe2b67c70284ccdf516d26fa8f68a566","infoHashBuffer":{"type":"Buffer","data":[106,83,112,246,254,43,103,199,2,132,204,223,81,109,38,250,143,104,165,102]},"announce":[],"urlList":[]}}